<?xml version="1.0" encoding="UTF-8" standalone="no"?>
<svg id="svg2" xmlns:rdf="http://www.w3.org/1999/02/22-rdf-syntax-ns#" xmlns="http://www.w3.org/2000/svg" height="8" width="8" version="1.1" xmlns:cc="http://creativecommons.org/ns#" xmlns:dc="http://purl.org/dc/elements/1.1/" viewBox="0 0 8 8">
 <path id="path4" fill="#fff" d="m3 0c-0.55 0-1 0.45-1 1h-1c-0.55 0-1 0.45-1 1h7c0-0.55-0.45-1-1-1h-1c0-0.55-0.45-1-1-1h-1zm-2 3v4.81c0 0.11 0.08 0.19 0.19 0.19h4.63c0.11 0 0.19-0.08 0.19-0.19v-4.81h-1v3.5c0 0.28-0.22 0.5-0.5 0.5s-0.5-0.22-0.5-0.5v-3.5h-1v3.5c0 0.28-0.22 0.5-0.5 0.5s-0.5-0.22-0.5-0.5v-3.5h-1z"/>
</svg>
