<?xml version="1.0" encoding="UTF-8" standalone="no"?>
<svg id="svg3394" xmlns:rdf="http://www.w3.org/1999/02/22-rdf-syntax-ns#" xmlns="http://www.w3.org/2000/svg" height="8" width="8" version="1.1" xmlns:cc="http://creativecommons.org/ns#" xmlns:dc="http://purl.org/dc/elements/1.1/" viewBox="0 0 8 8">
 <path id="path3396" d="m4.03 0c-2.53 0-4.03 3-4.03 3s1.5 3 4.03 3c2.47 0 3.97-3 3.97-3s-1.5-3-3.97-3zm-0.03 1c1.11 0 2 0.9 2 2 0 1.11-0.89 2-2 2-1.1 0-2-0.89-2-2 0-1.1 0.9-2 2-2zm0 1c-0.55 0-1 0.45-1 1s0.45 1 1 1 1-0.45 1-1c0-0.1-0.04-0.19-0.06-0.28-0.08 0.16-0.24 0.28-0.44 0.28-0.28 0-0.5-0.22-0.5-0.5 0-0.2 0.12-0.36 0.28-0.44-0.09-0.03-0.18-0.06-0.28-0.06z" transform="translate(0 1)"/>
 <path id="path3404" d="m6.6855 0.51772-2.9295 7.083" stroke="#000" fill="none"/>
 <path id="path5035" d="m7.3438 1.1562-2.75 6.5938" fill-rule="evenodd" stroke="#fff" stroke-width="0.7" fill="#fff"/>
</svg>
