<?xml version="1.0" encoding="UTF-8" standalone="no"?>
<!DOCTYPE svg PUBLIC "-//W3C//DTD SVG 1.1//EN" "http://www.w3.org/Graphics/SVG/1.1/DTD/svg11.dtd">
<svg width="100%" height="100%" viewBox="0 0 85 85" version="1.1" xmlns="http://www.w3.org/2000/svg" xmlns:xlink="http://www.w3.org/1999/xlink" xml:space="preserve" xmlns:serif="http://www.serif.com/" style="fill-rule:evenodd;clip-rule:evenodd;stroke-linejoin:round;stroke-miterlimit:2;">
    <g transform="matrix(1,0,0,1,-7.62,-7.62)">
        <path d="M50,92.38C26.751,92.38 7.62,73.249 7.62,50C7.62,26.751 26.751,7.62 50,7.62C73.249,7.62 92.38,26.751 92.38,50C92.358,73.241 73.241,92.358 50,92.38ZM50,17.63C32.237,17.63 17.62,32.247 17.62,50.01C17.62,67.773 32.237,82.39 50,82.39C67.763,82.39 82.38,67.773 82.38,50.01C82.38,50.007 82.38,50.003 82.38,50C82.358,32.247 67.753,17.646 50,17.63ZM41.71,50.06L41.71,49.94C41.71,47.197 39.453,44.94 36.71,44.94C33.967,44.94 31.71,47.197 31.71,49.94L31.71,50.06C31.71,52.803 33.967,55.06 36.71,55.06C39.453,55.06 41.71,52.803 41.71,50.06ZM55,50.06L55,49.94C55,47.197 52.743,44.94 50,44.94C47.257,44.94 45,47.197 45,49.94L45,50.06C45,52.803 47.257,55.06 50,55.06C52.743,55.06 55,52.803 55,50.06ZM68.29,50.06L68.29,49.94C68.29,47.197 66.033,44.94 63.29,44.94C60.547,44.94 58.29,47.197 58.29,49.94L58.29,50.06C58.29,52.803 60.547,55.06 63.29,55.06C66.033,55.06 68.29,52.803 68.29,50.06Z" style="fill:rgb(87,87,87);fill-rule:nonzero;"/>
    </g>
</svg>
